<svg width="100" height="100" viewBox="0 0 100 100" fill="none" xmlns="http://www.w3.org/2000/svg">
  <rect width="100" height="100" fill="#F3F4F6"/>
  <path d="M30 35C30 32.7909 31.7909 31 34 31H66C68.2091 31 70 32.7909 70 35V55L61.5 46.5L55 53L45 43L30 58V35Z" fill="#D1D5DB"/>
  <circle cx="42" cy="42" r="4" fill="#D1D5DB"/>
  <path d="M25 70H75C76.1046 70 77 69.1046 77 68V25C77 23.8954 76.1046 23 75 23H25C23.8954 23 23 23.8954 23 25V68C23 69.1046 23.8954 70 25 70Z" stroke="#9CA3AF" stroke-width="2"/>
  <text x="50" y="80" text-anchor="middle" fill="#9CA3AF" font-size="8" font-family="Arial, sans-serif">No Image</text>
</svg>
